<mxfile host="app.diagrams.net" agent="Mozilla/5.0 (Macintosh; Intel Mac OS X 10_15_7) AppleWebKit/537.36 (KHTML, like Gecko) Chrome/133.0.0.0 Safari/537.36" version="26.0.16">
  <diagram name="Page-1" id="1u0bXLWwdKbNFYyK-Vdu">
    <mxGraphModel dx="2141" dy="997" grid="1" gridSize="10" guides="1" tooltips="1" connect="1" arrows="1" fold="1" page="1" pageScale="1" pageWidth="1700" pageHeight="1100" math="0" shadow="0">
      <root>
        <mxCell id="0" />
        <mxCell id="1" parent="0" />
        <mxCell id="QZLf1c5xowND6YFxL0pv-1" value="Auction" style="swimlane;whiteSpace=wrap;html=1;" parent="1" vertex="1">
          <mxGeometry x="800" y="452" width="165" height="130" as="geometry" />
        </mxCell>
        <mxCell id="QZLf1c5xowND6YFxL0pv-48" value="Aid: int&lt;div&gt;name: String&lt;/div&gt;&lt;div&gt;schedule: String&lt;/div&gt;&lt;div&gt;type: String&lt;/div&gt;" style="text;html=1;align=center;verticalAlign=middle;whiteSpace=wrap;rounded=0;" parent="QZLf1c5xowND6YFxL0pv-1" vertex="1">
          <mxGeometry x="-20" y="25" width="137.5" height="60" as="geometry" />
        </mxCell>
        <mxCell id="QZLf1c5xowND6YFxL0pv-92" value="*" style="text;html=1;align=center;verticalAlign=middle;whiteSpace=wrap;rounded=0;" parent="QZLf1c5xowND6YFxL0pv-1" vertex="1">
          <mxGeometry x="-37.5" y="50" width="60" height="30" as="geometry" />
        </mxCell>
        <mxCell id="PiHvi__B2upB0cJjWYUh-1" value="" style="endArrow=none;html=1;rounded=0;entryX=0.25;entryY=1;entryDx=0;entryDy=0;" edge="1" parent="QZLf1c5xowND6YFxL0pv-1" target="QZLf1c5xowND6YFxL0pv-91">
          <mxGeometry width="50" height="50" relative="1" as="geometry">
            <mxPoint y="85" as="sourcePoint" />
            <mxPoint x="151" y="85.31999999999994" as="targetPoint" />
          </mxGeometry>
        </mxCell>
        <mxCell id="PiHvi__B2upB0cJjWYUh-16" value="createAuction()&lt;div&gt;view()&lt;/div&gt;" style="text;html=1;align=center;verticalAlign=middle;whiteSpace=wrap;rounded=0;" vertex="1" parent="QZLf1c5xowND6YFxL0pv-1">
          <mxGeometry x="3.75" y="80" width="90" height="50" as="geometry" />
        </mxCell>
        <mxCell id="QZLf1c5xowND6YFxL0pv-2" value="Auction-House" style="swimlane;whiteSpace=wrap;html=1;" parent="1" vertex="1">
          <mxGeometry x="800" y="652" width="165" height="140" as="geometry" />
        </mxCell>
        <mxCell id="QZLf1c5xowND6YFxL0pv-52" value="Auid : int&lt;div&gt;name: String&lt;/div&gt;&lt;div&gt;location: String&lt;/div&gt;" style="text;html=1;align=center;verticalAlign=middle;whiteSpace=wrap;rounded=0;" parent="QZLf1c5xowND6YFxL0pv-2" vertex="1">
          <mxGeometry x="-4" y="20" width="110" height="60" as="geometry" />
        </mxCell>
        <mxCell id="PiHvi__B2upB0cJjWYUh-15" value="" style="endArrow=none;html=1;rounded=0;entryX=0.25;entryY=1;entryDx=0;entryDy=0;" edge="1" parent="QZLf1c5xowND6YFxL0pv-2">
          <mxGeometry width="50" height="50" relative="1" as="geometry">
            <mxPoint y="70" as="sourcePoint" />
            <mxPoint x="165" y="70" as="targetPoint" />
          </mxGeometry>
        </mxCell>
        <mxCell id="QZLf1c5xowND6YFxL0pv-3" value="Administrator" style="swimlane;whiteSpace=wrap;html=1;" parent="1" vertex="1">
          <mxGeometry x="800" y="853" width="177.5" height="187" as="geometry" />
        </mxCell>
        <mxCell id="QZLf1c5xowND6YFxL0pv-55" value="Adid: int&lt;div&gt;name: String&lt;/div&gt;" style="text;html=1;align=center;verticalAlign=middle;whiteSpace=wrap;rounded=0;" parent="QZLf1c5xowND6YFxL0pv-3" vertex="1">
          <mxGeometry x="-9" y="29" width="104" height="30" as="geometry" />
        </mxCell>
        <mxCell id="QZLf1c5xowND6YFxL0pv-69" value="1" style="text;html=1;align=center;verticalAlign=middle;whiteSpace=wrap;rounded=0;" parent="QZLf1c5xowND6YFxL0pv-3" vertex="1">
          <mxGeometry x="-37.5" y="39" width="60" height="30" as="geometry" />
        </mxCell>
        <mxCell id="PiHvi__B2upB0cJjWYUh-8" value="" style="endArrow=none;html=1;rounded=0;entryX=0.25;entryY=1;entryDx=0;entryDy=0;" edge="1" parent="QZLf1c5xowND6YFxL0pv-3">
          <mxGeometry width="50" height="50" relative="1" as="geometry">
            <mxPoint y="63.680000000000064" as="sourcePoint" />
            <mxPoint x="165" y="63.680000000000064" as="targetPoint" />
          </mxGeometry>
        </mxCell>
        <mxCell id="PiHvi__B2upB0cJjWYUh-17" value="updateAccount()&lt;br&gt;&lt;div&gt;approveSignUpRequest()&lt;/div&gt;&lt;div&gt;deleteAccount()&lt;/div&gt;&lt;div&gt;addAuctionData()&lt;/div&gt;&lt;div&gt;updateInfo()&lt;/div&gt;&lt;div&gt;AddAvailability()&lt;/div&gt;" style="text;html=1;align=center;verticalAlign=middle;whiteSpace=wrap;rounded=0;" vertex="1" parent="QZLf1c5xowND6YFxL0pv-3">
          <mxGeometry x="-12.5" y="70" width="190" height="100" as="geometry" />
        </mxCell>
        <mxCell id="QZLf1c5xowND6YFxL0pv-6" value="Online" style="swimlane;whiteSpace=wrap;html=1;" parent="1" vertex="1">
          <mxGeometry x="509" y="122" width="165" height="130" as="geometry" />
        </mxCell>
        <mxCell id="QZLf1c5xowND6YFxL0pv-43" value="Oid: int&lt;div&gt;start_time: string&lt;/div&gt;&lt;div&gt;end_time: string&lt;/div&gt;" style="text;html=1;align=center;verticalAlign=middle;whiteSpace=wrap;rounded=0;" parent="QZLf1c5xowND6YFxL0pv-6" vertex="1">
          <mxGeometry x="-34" y="10" width="160" height="70" as="geometry" />
        </mxCell>
        <mxCell id="PiHvi__B2upB0cJjWYUh-2" value="" style="endArrow=none;html=1;rounded=0;entryX=0.25;entryY=1;entryDx=0;entryDy=0;" edge="1" parent="QZLf1c5xowND6YFxL0pv-6">
          <mxGeometry width="50" height="50" relative="1" as="geometry">
            <mxPoint y="77" as="sourcePoint" />
            <mxPoint x="165" y="77" as="targetPoint" />
          </mxGeometry>
        </mxCell>
        <mxCell id="QZLf1c5xowND6YFxL0pv-7" value="In-Person" style="swimlane;whiteSpace=wrap;html=1;" parent="1" vertex="1">
          <mxGeometry x="930" y="122" width="165" height="130" as="geometry" />
        </mxCell>
        <mxCell id="QZLf1c5xowND6YFxL0pv-45" value="Catalog: list" style="text;html=1;align=center;verticalAlign=middle;whiteSpace=wrap;rounded=0;" parent="QZLf1c5xowND6YFxL0pv-7" vertex="1">
          <mxGeometry x="-24" y="20" width="135" height="30" as="geometry" />
        </mxCell>
        <mxCell id="PiHvi__B2upB0cJjWYUh-4" value="" style="endArrow=none;html=1;rounded=0;entryX=0.25;entryY=1;entryDx=0;entryDy=0;" edge="1" parent="QZLf1c5xowND6YFxL0pv-7">
          <mxGeometry width="50" height="50" relative="1" as="geometry">
            <mxPoint y="49.349999999999994" as="sourcePoint" />
            <mxPoint x="165" y="49.349999999999994" as="targetPoint" />
          </mxGeometry>
        </mxCell>
        <mxCell id="QZLf1c5xowND6YFxL0pv-8" value="" style="endArrow=none;html=1;rounded=0;" parent="1" edge="1">
          <mxGeometry width="50" height="50" relative="1" as="geometry">
            <mxPoint x="882.08" y="652" as="sourcePoint" />
            <mxPoint x="882.08" y="582" as="targetPoint" />
          </mxGeometry>
        </mxCell>
        <mxCell id="QZLf1c5xowND6YFxL0pv-9" value="" style="endArrow=none;html=1;rounded=0;" parent="1" edge="1">
          <mxGeometry width="50" height="50" relative="1" as="geometry">
            <mxPoint x="882.0799999999999" y="852" as="sourcePoint" />
            <mxPoint x="882" y="792" as="targetPoint" />
          </mxGeometry>
        </mxCell>
        <mxCell id="QZLf1c5xowND6YFxL0pv-10" value="" style="verticalLabelPosition=bottom;verticalAlign=top;html=1;shape=mxgraph.basic.acute_triangle;dx=0.5;rotation=-180;" parent="1" vertex="1">
          <mxGeometry x="865" y="432" width="30" height="20" as="geometry" />
        </mxCell>
        <mxCell id="QZLf1c5xowND6YFxL0pv-13" value="" style="endArrow=none;html=1;rounded=0;" parent="1" edge="1">
          <mxGeometry width="50" height="50" relative="1" as="geometry">
            <mxPoint x="600" y="362" as="sourcePoint" />
            <mxPoint x="1000" y="362" as="targetPoint" />
          </mxGeometry>
        </mxCell>
        <mxCell id="QZLf1c5xowND6YFxL0pv-14" value="" style="endArrow=none;html=1;rounded=0;" parent="1" edge="1">
          <mxGeometry width="50" height="50" relative="1" as="geometry">
            <mxPoint x="600" y="362" as="sourcePoint" />
            <mxPoint x="600" y="252" as="targetPoint" />
          </mxGeometry>
        </mxCell>
        <mxCell id="QZLf1c5xowND6YFxL0pv-15" value="" style="endArrow=none;html=1;rounded=0;" parent="1" edge="1">
          <mxGeometry width="50" height="50" relative="1" as="geometry">
            <mxPoint x="1000" y="362" as="sourcePoint" />
            <mxPoint x="1000" y="252" as="targetPoint" />
          </mxGeometry>
        </mxCell>
        <mxCell id="QZLf1c5xowND6YFxL0pv-16" value="" style="endArrow=none;html=1;rounded=0;" parent="1" edge="1">
          <mxGeometry width="50" height="50" relative="1" as="geometry">
            <mxPoint x="879.58" y="432" as="sourcePoint" />
            <mxPoint x="879.58" y="362" as="targetPoint" />
          </mxGeometry>
        </mxCell>
        <mxCell id="QZLf1c5xowND6YFxL0pv-17" value="Schedule" style="swimlane;whiteSpace=wrap;html=1;" parent="1" vertex="1">
          <mxGeometry x="1110" y="652" width="165" height="130" as="geometry" />
        </mxCell>
        <mxCell id="QZLf1c5xowND6YFxL0pv-54" value="Sid: int&lt;div&gt;time_slots: String&lt;/div&gt;" style="text;html=1;align=center;verticalAlign=middle;resizable=0;points=[];autosize=1;strokeColor=none;fillColor=none;" parent="QZLf1c5xowND6YFxL0pv-17" vertex="1">
          <mxGeometry x="-10" y="20" width="120" height="40" as="geometry" />
        </mxCell>
        <mxCell id="PiHvi__B2upB0cJjWYUh-9" value="" style="endArrow=none;html=1;rounded=0;entryX=0.25;entryY=1;entryDx=0;entryDy=0;" edge="1" parent="QZLf1c5xowND6YFxL0pv-17">
          <mxGeometry width="50" height="50" relative="1" as="geometry">
            <mxPoint y="54.680000000000064" as="sourcePoint" />
            <mxPoint x="165" y="54.680000000000064" as="targetPoint" />
          </mxGeometry>
        </mxCell>
        <mxCell id="QZLf1c5xowND6YFxL0pv-18" value="Expert" style="swimlane;whiteSpace=wrap;html=1;" parent="1" vertex="1">
          <mxGeometry x="1110" y="842" width="170" height="157" as="geometry" />
        </mxCell>
        <mxCell id="QZLf1c5xowND6YFxL0pv-56" value="Exid: int&lt;div&gt;name: String&lt;/div&gt;&lt;div&gt;expertise: String&lt;/div&gt;&lt;div&gt;availability_schedule: String&lt;/div&gt;" style="text;html=1;align=center;verticalAlign=middle;resizable=0;points=[];autosize=1;strokeColor=none;fillColor=none;" parent="QZLf1c5xowND6YFxL0pv-18" vertex="1">
          <mxGeometry x="-10" y="20" width="170" height="70" as="geometry" />
        </mxCell>
        <mxCell id="QZLf1c5xowND6YFxL0pv-74" value="*" style="text;html=1;align=center;verticalAlign=middle;whiteSpace=wrap;rounded=0;" parent="QZLf1c5xowND6YFxL0pv-18" vertex="1">
          <mxGeometry x="-40" y="50" width="60" height="30" as="geometry" />
        </mxCell>
        <mxCell id="PiHvi__B2upB0cJjWYUh-12" value="" style="endArrow=none;html=1;rounded=0;entryX=0.25;entryY=1;entryDx=0;entryDy=0;" edge="1" parent="QZLf1c5xowND6YFxL0pv-18">
          <mxGeometry width="50" height="50" relative="1" as="geometry">
            <mxPoint y="90.00000000000011" as="sourcePoint" />
            <mxPoint x="165" y="90.00000000000011" as="targetPoint" />
          </mxGeometry>
        </mxCell>
        <mxCell id="PiHvi__B2upB0cJjWYUh-18" value="LogIn()&lt;div&gt;AddAvailability()&lt;/div&gt;&lt;div&gt;read()&lt;/div&gt;&lt;div&gt;&lt;br&gt;&lt;/div&gt;" style="text;html=1;align=center;verticalAlign=middle;whiteSpace=wrap;rounded=0;" vertex="1" parent="QZLf1c5xowND6YFxL0pv-18">
          <mxGeometry x="-10" y="97" width="180" height="60" as="geometry" />
        </mxCell>
        <mxCell id="QZLf1c5xowND6YFxL0pv-19" value="Availiability" style="swimlane;whiteSpace=wrap;html=1;" parent="1" vertex="1">
          <mxGeometry x="1350" y="842" width="165" height="130" as="geometry" />
        </mxCell>
        <mxCell id="QZLf1c5xowND6YFxL0pv-57" value="Avid: int&lt;div&gt;time_slots : String&lt;/div&gt;" style="text;html=1;align=center;verticalAlign=middle;whiteSpace=wrap;rounded=0;" parent="QZLf1c5xowND6YFxL0pv-19" vertex="1">
          <mxGeometry y="20" width="100" height="40" as="geometry" />
        </mxCell>
        <mxCell id="PiHvi__B2upB0cJjWYUh-14" value="" style="endArrow=none;html=1;rounded=0;entryX=0.25;entryY=1;entryDx=0;entryDy=0;" edge="1" parent="QZLf1c5xowND6YFxL0pv-19">
          <mxGeometry width="50" height="50" relative="1" as="geometry">
            <mxPoint y="60.000000000000114" as="sourcePoint" />
            <mxPoint x="165" y="60.000000000000114" as="targetPoint" />
          </mxGeometry>
        </mxCell>
        <mxCell id="QZLf1c5xowND6YFxL0pv-20" value="" style="endArrow=none;html=1;rounded=0;entryX=0;entryY=0.5;entryDx=0;entryDy=0;exitX=1;exitY=0.5;exitDx=0;exitDy=0;" parent="1" source="QZLf1c5xowND6YFxL0pv-28" edge="1">
          <mxGeometry width="50" height="50" relative="1" as="geometry">
            <mxPoint x="665" y="922" as="sourcePoint" />
            <mxPoint x="799.9999999999995" y="945.5" as="targetPoint" />
          </mxGeometry>
        </mxCell>
        <mxCell id="QZLf1c5xowND6YFxL0pv-21" value="" style="endArrow=none;html=1;rounded=0;entryX=0.25;entryY=0;entryDx=0;entryDy=0;" parent="1" target="QZLf1c5xowND6YFxL0pv-18" edge="1">
          <mxGeometry width="50" height="50" relative="1" as="geometry">
            <mxPoint x="640" y="722" as="sourcePoint" />
            <mxPoint x="1140" y="812" as="targetPoint" />
            <Array as="points">
              <mxPoint x="720" y="722" />
              <mxPoint x="720" y="822" />
              <mxPoint x="1151" y="822" />
            </Array>
          </mxGeometry>
        </mxCell>
        <mxCell id="QZLf1c5xowND6YFxL0pv-22" value="" style="endArrow=none;html=1;rounded=0;" parent="1" edge="1">
          <mxGeometry width="50" height="50" relative="1" as="geometry">
            <mxPoint x="582" y="802" as="sourcePoint" />
            <mxPoint x="582.02" y="852" as="targetPoint" />
          </mxGeometry>
        </mxCell>
        <mxCell id="QZLf1c5xowND6YFxL0pv-23" value="" style="endArrow=none;html=1;rounded=0;" parent="1" edge="1">
          <mxGeometry width="50" height="50" relative="1" as="geometry">
            <mxPoint x="1180" y="842" as="sourcePoint" />
            <mxPoint x="1180" y="782" as="targetPoint" />
          </mxGeometry>
        </mxCell>
        <mxCell id="QZLf1c5xowND6YFxL0pv-24" value="" style="endArrow=none;html=1;rounded=0;" parent="1" edge="1">
          <mxGeometry width="50" height="50" relative="1" as="geometry">
            <mxPoint x="1275" y="906.44" as="sourcePoint" />
            <mxPoint x="1350" y="906" as="targetPoint" />
          </mxGeometry>
        </mxCell>
        <mxCell id="QZLf1c5xowND6YFxL0pv-25" value="" style="endArrow=none;html=1;rounded=0;" parent="1" edge="1">
          <mxGeometry width="50" height="50" relative="1" as="geometry">
            <mxPoint x="965" y="916.44" as="sourcePoint" />
            <mxPoint x="1110" y="916" as="targetPoint" />
          </mxGeometry>
        </mxCell>
        <mxCell id="QZLf1c5xowND6YFxL0pv-26" value="" style="endArrow=none;html=1;rounded=0;entryX=0;entryY=0.5;entryDx=0;entryDy=0;" parent="1" target="QZLf1c5xowND6YFxL0pv-17" edge="1">
          <mxGeometry width="50" height="50" relative="1" as="geometry">
            <mxPoint x="965" y="716.44" as="sourcePoint" />
            <mxPoint x="1055" y="716.44" as="targetPoint" />
          </mxGeometry>
        </mxCell>
        <mxCell id="QZLf1c5xowND6YFxL0pv-28" value="Client" style="swimlane;whiteSpace=wrap;html=1;" parent="1" vertex="1">
          <mxGeometry x="500" y="852" width="165" height="147" as="geometry" />
        </mxCell>
        <mxCell id="QZLf1c5xowND6YFxL0pv-58" value="Cid: int&lt;div&gt;name: String&lt;/div&gt;&lt;div&gt;institution: String&lt;/div&gt;&lt;div&gt;contant_info: int&lt;/div&gt;" style="text;html=1;align=center;verticalAlign=middle;whiteSpace=wrap;rounded=0;" parent="QZLf1c5xowND6YFxL0pv-28" vertex="1">
          <mxGeometry x="-5" y="25" width="105" height="60" as="geometry" />
        </mxCell>
        <mxCell id="PiHvi__B2upB0cJjWYUh-13" value="" style="endArrow=none;html=1;rounded=0;entryX=0.25;entryY=1;entryDx=0;entryDy=0;" edge="1" parent="QZLf1c5xowND6YFxL0pv-28">
          <mxGeometry width="50" height="50" relative="1" as="geometry">
            <mxPoint y="85.00000000000011" as="sourcePoint" />
            <mxPoint x="165" y="85.00000000000011" as="targetPoint" />
          </mxGeometry>
        </mxCell>
        <mxCell id="PiHvi__B2upB0cJjWYUh-19" value="LogIn()&lt;div&gt;read()&lt;/div&gt;&lt;div&gt;requestService()&lt;/div&gt;" style="text;html=1;align=center;verticalAlign=middle;whiteSpace=wrap;rounded=0;" vertex="1" parent="QZLf1c5xowND6YFxL0pv-28">
          <mxGeometry x="20" y="85" width="110" height="57" as="geometry" />
        </mxCell>
        <mxCell id="QZLf1c5xowND6YFxL0pv-29" value="Service-Request" style="swimlane;whiteSpace=wrap;html=1;" parent="1" vertex="1">
          <mxGeometry x="470" y="672" width="165" height="130" as="geometry" />
        </mxCell>
        <mxCell id="QZLf1c5xowND6YFxL0pv-50" value="SRid : int&lt;div&gt;type: String&lt;/div&gt;&lt;div&gt;status: String&lt;/div&gt;" style="text;html=1;align=center;verticalAlign=middle;whiteSpace=wrap;rounded=0;" parent="QZLf1c5xowND6YFxL0pv-29" vertex="1">
          <mxGeometry x="-50" y="20" width="180" height="60" as="geometry" />
        </mxCell>
        <mxCell id="PiHvi__B2upB0cJjWYUh-11" value="" style="endArrow=none;html=1;rounded=0;entryX=0.25;entryY=1;entryDx=0;entryDy=0;" edge="1" parent="QZLf1c5xowND6YFxL0pv-29">
          <mxGeometry width="50" height="50" relative="1" as="geometry">
            <mxPoint y="72.5" as="sourcePoint" />
            <mxPoint x="165" y="72.5" as="targetPoint" />
          </mxGeometry>
        </mxCell>
        <mxCell id="QZLf1c5xowND6YFxL0pv-30" value="" style="endArrow=diamondThin;endFill=0;endSize=24;html=1;rounded=0;entryX=1;entryY=0.25;entryDx=0;entryDy=0;" parent="1" target="QZLf1c5xowND6YFxL0pv-28" edge="1">
          <mxGeometry width="160" relative="1" as="geometry">
            <mxPoint x="800" y="522" as="sourcePoint" />
            <mxPoint x="680" y="882" as="targetPoint" />
            <Array as="points">
              <mxPoint x="740" y="522" />
              <mxPoint x="740" y="882" />
            </Array>
          </mxGeometry>
        </mxCell>
        <mxCell id="QZLf1c5xowND6YFxL0pv-31" value="Institution" style="swimlane;whiteSpace=wrap;html=1;" parent="1" vertex="1">
          <mxGeometry x="190" y="652" width="165" height="130" as="geometry" />
        </mxCell>
        <mxCell id="QZLf1c5xowND6YFxL0pv-51" value="name : String&lt;div&gt;location : String&lt;/div&gt;&lt;div&gt;owns_objects: boolean&lt;/div&gt;" style="text;html=1;align=center;verticalAlign=middle;whiteSpace=wrap;rounded=0;" parent="QZLf1c5xowND6YFxL0pv-31" vertex="1">
          <mxGeometry y="7.5" width="131" height="85" as="geometry" />
        </mxCell>
        <mxCell id="PiHvi__B2upB0cJjWYUh-10" value="" style="endArrow=none;html=1;rounded=0;entryX=0.25;entryY=1;entryDx=0;entryDy=0;" edge="1" parent="QZLf1c5xowND6YFxL0pv-31">
          <mxGeometry width="50" height="50" relative="1" as="geometry">
            <mxPoint y="70" as="sourcePoint" />
            <mxPoint x="165" y="70" as="targetPoint" />
          </mxGeometry>
        </mxCell>
        <mxCell id="QZLf1c5xowND6YFxL0pv-32" value="Interested-Object" style="swimlane;whiteSpace=wrap;html=1;" parent="1" vertex="1">
          <mxGeometry x="200" y="407" width="165" height="130" as="geometry" />
        </mxCell>
        <mxCell id="QZLf1c5xowND6YFxL0pv-49" value="Obid: int&lt;div&gt;name: String&lt;/div&gt;&lt;div&gt;description: String&lt;br&gt;owned: Boolean&lt;/div&gt;" style="text;html=1;align=center;verticalAlign=middle;whiteSpace=wrap;rounded=0;" parent="QZLf1c5xowND6YFxL0pv-32" vertex="1">
          <mxGeometry x="-30" y="25" width="160" height="60" as="geometry" />
        </mxCell>
        <mxCell id="PiHvi__B2upB0cJjWYUh-5" value="" style="endArrow=none;html=1;rounded=0;entryX=0.25;entryY=1;entryDx=0;entryDy=0;" edge="1" parent="QZLf1c5xowND6YFxL0pv-32">
          <mxGeometry width="50" height="50" relative="1" as="geometry">
            <mxPoint y="85" as="sourcePoint" />
            <mxPoint x="165" y="85" as="targetPoint" />
          </mxGeometry>
        </mxCell>
        <mxCell id="QZLf1c5xowND6YFxL0pv-33" value="" style="endArrow=diamondThin;endFill=0;endSize=24;html=1;rounded=0;exitX=0.5;exitY=1;exitDx=0;exitDy=0;entryX=0;entryY=0.25;entryDx=0;entryDy=0;" parent="1" source="QZLf1c5xowND6YFxL0pv-31" target="QZLf1c5xowND6YFxL0pv-28" edge="1">
          <mxGeometry width="160" relative="1" as="geometry">
            <mxPoint x="270" y="892" as="sourcePoint" />
            <mxPoint x="430" y="892" as="targetPoint" />
            <Array as="points">
              <mxPoint x="273" y="882" />
            </Array>
          </mxGeometry>
        </mxCell>
        <mxCell id="QZLf1c5xowND6YFxL0pv-34" value="" style="endArrow=diamondThin;endFill=0;endSize=24;html=1;rounded=0;exitX=0.5;exitY=0;exitDx=0;exitDy=0;entryX=0.5;entryY=1;entryDx=0;entryDy=0;" parent="1" source="QZLf1c5xowND6YFxL0pv-31" target="QZLf1c5xowND6YFxL0pv-32" edge="1">
          <mxGeometry width="160" relative="1" as="geometry">
            <mxPoint x="240" y="582" as="sourcePoint" />
            <mxPoint x="400" y="582" as="targetPoint" />
          </mxGeometry>
        </mxCell>
        <mxCell id="QZLf1c5xowND6YFxL0pv-35" value="viewing" style="swimlane;whiteSpace=wrap;html=1;" parent="1" vertex="1">
          <mxGeometry x="710" y="122" width="165" height="130" as="geometry" />
        </mxCell>
        <mxCell id="QZLf1c5xowND6YFxL0pv-44" value="object : String" style="text;html=1;align=center;verticalAlign=middle;whiteSpace=wrap;rounded=0;" parent="QZLf1c5xowND6YFxL0pv-35" vertex="1">
          <mxGeometry y="25" width="106" height="20" as="geometry" />
        </mxCell>
        <mxCell id="PiHvi__B2upB0cJjWYUh-3" value="" style="endArrow=none;html=1;rounded=0;entryX=0.25;entryY=1;entryDx=0;entryDy=0;" edge="1" parent="QZLf1c5xowND6YFxL0pv-35">
          <mxGeometry width="50" height="50" relative="1" as="geometry">
            <mxPoint y="50" as="sourcePoint" />
            <mxPoint x="165" y="50" as="targetPoint" />
          </mxGeometry>
        </mxCell>
        <mxCell id="QZLf1c5xowND6YFxL0pv-36" value="" style="endArrow=none;html=1;rounded=0;" parent="1" edge="1">
          <mxGeometry width="50" height="50" relative="1" as="geometry">
            <mxPoint x="875" y="202" as="sourcePoint" />
            <mxPoint x="930" y="202" as="targetPoint" />
          </mxGeometry>
        </mxCell>
        <mxCell id="QZLf1c5xowND6YFxL0pv-37" value="" style="endArrow=none;html=1;rounded=0;" parent="1" edge="1">
          <mxGeometry width="50" height="50" relative="1" as="geometry">
            <mxPoint x="800" y="682" as="sourcePoint" />
            <mxPoint x="720" y="252" as="targetPoint" />
            <Array as="points">
              <mxPoint x="720" y="682" />
            </Array>
          </mxGeometry>
        </mxCell>
        <mxCell id="QZLf1c5xowND6YFxL0pv-38" value="" style="endArrow=none;html=1;rounded=0;exitX=1;exitY=0.5;exitDx=0;exitDy=0;entryX=0;entryY=0.5;entryDx=0;entryDy=0;" parent="1" source="QZLf1c5xowND6YFxL0pv-32" target="QZLf1c5xowND6YFxL0pv-2" edge="1">
          <mxGeometry width="50" height="50" relative="1" as="geometry">
            <mxPoint x="480" y="497" as="sourcePoint" />
            <mxPoint x="480" y="387" as="targetPoint" />
            <Array as="points">
              <mxPoint x="540" y="622" />
            </Array>
          </mxGeometry>
        </mxCell>
        <mxCell id="QZLf1c5xowND6YFxL0pv-59" value="1" style="text;html=1;align=center;verticalAlign=middle;whiteSpace=wrap;rounded=0;" parent="1" vertex="1">
          <mxGeometry x="252.5" y="782" width="60" height="30" as="geometry" />
        </mxCell>
        <mxCell id="QZLf1c5xowND6YFxL0pv-60" value="1" style="text;html=1;align=center;verticalAlign=middle;whiteSpace=wrap;rounded=0;" parent="1" vertex="1">
          <mxGeometry x="252.5" y="632" width="60" height="30" as="geometry" />
        </mxCell>
        <mxCell id="QZLf1c5xowND6YFxL0pv-61" value="1" style="text;html=1;align=center;verticalAlign=middle;whiteSpace=wrap;rounded=0;" parent="1" vertex="1">
          <mxGeometry x="865" y="582" width="60" height="30" as="geometry" />
        </mxCell>
        <mxCell id="QZLf1c5xowND6YFxL0pv-62" value="1" style="text;html=1;align=center;verticalAlign=middle;whiteSpace=wrap;rounded=0;" parent="1" vertex="1">
          <mxGeometry x="870" y="632" width="60" height="30" as="geometry" />
        </mxCell>
        <mxCell id="QZLf1c5xowND6YFxL0pv-64" value="1" style="text;html=1;align=center;verticalAlign=middle;whiteSpace=wrap;rounded=0;" parent="1" vertex="1">
          <mxGeometry x="950" y="692" width="60" height="30" as="geometry" />
        </mxCell>
        <mxCell id="QZLf1c5xowND6YFxL0pv-65" value="1" style="text;html=1;align=center;verticalAlign=middle;whiteSpace=wrap;rounded=0;" parent="1" vertex="1">
          <mxGeometry x="1162.5" y="812" width="60" height="30" as="geometry" />
        </mxCell>
        <mxCell id="QZLf1c5xowND6YFxL0pv-66" value="1" style="text;html=1;align=center;verticalAlign=middle;whiteSpace=wrap;rounded=0;" parent="1" vertex="1">
          <mxGeometry x="950" y="892" width="60" height="30" as="geometry" />
        </mxCell>
        <mxCell id="QZLf1c5xowND6YFxL0pv-67" value="1" style="text;html=1;align=center;verticalAlign=middle;whiteSpace=wrap;rounded=0;" parent="1" vertex="1">
          <mxGeometry x="860" y="832" width="60" height="30" as="geometry" />
        </mxCell>
        <mxCell id="QZLf1c5xowND6YFxL0pv-70" value="*" style="text;html=1;align=center;verticalAlign=middle;whiteSpace=wrap;rounded=0;" parent="1" vertex="1">
          <mxGeometry x="460" y="852" width="60" height="30" as="geometry" />
        </mxCell>
        <mxCell id="QZLf1c5xowND6YFxL0pv-72" value="*" style="text;html=1;align=center;verticalAlign=middle;whiteSpace=wrap;rounded=0;" parent="1" vertex="1">
          <mxGeometry x="650" y="912" width="60" height="30" as="geometry" />
        </mxCell>
        <mxCell id="QZLf1c5xowND6YFxL0pv-73" value="*" style="text;html=1;align=center;verticalAlign=middle;whiteSpace=wrap;rounded=0;" parent="1" vertex="1">
          <mxGeometry x="665" y="862" width="60" height="30" as="geometry" />
        </mxCell>
        <mxCell id="QZLf1c5xowND6YFxL0pv-75" value="*" style="text;html=1;align=center;verticalAlign=middle;whiteSpace=wrap;rounded=0;" parent="1" vertex="1">
          <mxGeometry x="1310" y="882" width="60" height="30" as="geometry" />
        </mxCell>
        <mxCell id="QZLf1c5xowND6YFxL0pv-76" value="*" style="text;html=1;align=center;verticalAlign=middle;whiteSpace=wrap;rounded=0;" parent="1" vertex="1">
          <mxGeometry x="1260" y="882" width="60" height="30" as="geometry" />
        </mxCell>
        <mxCell id="QZLf1c5xowND6YFxL0pv-77" value="*" style="text;html=1;align=center;verticalAlign=middle;whiteSpace=wrap;rounded=0;" parent="1" vertex="1">
          <mxGeometry x="1070" y="692" width="60" height="30" as="geometry" />
        </mxCell>
        <mxCell id="QZLf1c5xowND6YFxL0pv-79" value="*" style="text;html=1;align=center;verticalAlign=middle;whiteSpace=wrap;rounded=0;" parent="1" vertex="1">
          <mxGeometry x="1110" y="822" width="60" height="30" as="geometry" />
        </mxCell>
        <mxCell id="QZLf1c5xowND6YFxL0pv-80" value="*" style="text;html=1;align=center;verticalAlign=middle;whiteSpace=wrap;rounded=0;" parent="1" vertex="1">
          <mxGeometry x="860" y="789" width="60" height="30" as="geometry" />
        </mxCell>
        <mxCell id="QZLf1c5xowND6YFxL0pv-82" value="*" style="text;html=1;align=center;verticalAlign=middle;whiteSpace=wrap;rounded=0;" parent="1" vertex="1">
          <mxGeometry x="540" y="799" width="60" height="30" as="geometry" />
        </mxCell>
        <mxCell id="QZLf1c5xowND6YFxL0pv-83" value="*" style="text;html=1;align=center;verticalAlign=middle;whiteSpace=wrap;rounded=0;" parent="1" vertex="1">
          <mxGeometry x="540" y="832" width="60" height="30" as="geometry" />
        </mxCell>
        <mxCell id="QZLf1c5xowND6YFxL0pv-84" value="*" style="text;html=1;align=center;verticalAlign=middle;whiteSpace=wrap;rounded=0;" parent="1" vertex="1">
          <mxGeometry x="620" y="702" width="60" height="30" as="geometry" />
        </mxCell>
        <mxCell id="QZLf1c5xowND6YFxL0pv-85" value="*" style="text;html=1;align=center;verticalAlign=middle;whiteSpace=wrap;rounded=0;" parent="1" vertex="1">
          <mxGeometry x="760" y="662" width="60" height="30" as="geometry" />
        </mxCell>
        <mxCell id="QZLf1c5xowND6YFxL0pv-86" value="*" style="text;html=1;align=center;verticalAlign=middle;whiteSpace=wrap;rounded=0;" parent="1" vertex="1">
          <mxGeometry x="760" y="722" width="60" height="30" as="geometry" />
        </mxCell>
        <mxCell id="QZLf1c5xowND6YFxL0pv-87" value="*" style="text;html=1;align=center;verticalAlign=middle;whiteSpace=wrap;rounded=0;" parent="1" vertex="1">
          <mxGeometry x="350" y="457" width="60" height="30" as="geometry" />
        </mxCell>
        <mxCell id="QZLf1c5xowND6YFxL0pv-88" value="*" style="text;html=1;align=center;verticalAlign=middle;whiteSpace=wrap;rounded=0;" parent="1" vertex="1">
          <mxGeometry x="710" y="252" width="60" height="30" as="geometry" />
        </mxCell>
        <mxCell id="QZLf1c5xowND6YFxL0pv-89" value="" style="endArrow=none;html=1;rounded=0;entryX=1;entryY=0.5;entryDx=0;entryDy=0;exitX=0;exitY=0;exitDx=0;exitDy=0;" parent="1" source="QZLf1c5xowND6YFxL0pv-18" target="QZLf1c5xowND6YFxL0pv-1" edge="1">
          <mxGeometry width="50" height="50" relative="1" as="geometry">
            <mxPoint x="1020" y="622" as="sourcePoint" />
            <mxPoint x="1070" y="572" as="targetPoint" />
          </mxGeometry>
        </mxCell>
        <mxCell id="QZLf1c5xowND6YFxL0pv-90" value="*" style="text;html=1;align=center;verticalAlign=middle;whiteSpace=wrap;rounded=0;" parent="1" vertex="1">
          <mxGeometry x="1070" y="829" width="60" height="30" as="geometry" />
        </mxCell>
        <mxCell id="QZLf1c5xowND6YFxL0pv-91" value="*" style="text;html=1;align=center;verticalAlign=middle;whiteSpace=wrap;rounded=0;" parent="1" vertex="1">
          <mxGeometry x="950" y="507" width="60" height="30" as="geometry" />
        </mxCell>
        <mxCell id="QZLf1c5xowND6YFxL0pv-94" value="1" style="text;html=1;align=center;verticalAlign=middle;whiteSpace=wrap;rounded=0;" parent="1" vertex="1">
          <mxGeometry x="852.5" y="172" width="60" height="30" as="geometry" />
        </mxCell>
        <mxCell id="QZLf1c5xowND6YFxL0pv-95" value="1" style="text;html=1;align=center;verticalAlign=middle;whiteSpace=wrap;rounded=0;" parent="1" vertex="1">
          <mxGeometry x="895" y="172" width="60" height="30" as="geometry" />
        </mxCell>
      </root>
    </mxGraphModel>
  </diagram>
</mxfile>
